<svg xmlns="http://www.w3.org/2000/svg" viewBox="0 0 1056 1008" fill="currentColor">
  <path d="m 439.59979,809.51045 c -26.3012,-2.81858 -47.8434,-6.66296 -45.4687,-8.11426 0.5328,-0.32561 6.8187,-1.11504 13.9687,-1.7543 15.879,-1.41969 18.1786,-1.86229 35,-6.73616 16.7451,-4.85176 32.8568,-14.52105 43.6713,-26.20894 6.0795,-6.57055 13.9084,-19.73011 13.8544,-23.28794 -0.014,-0.93004 0.3746,-1.93837 0.8639,-2.24073 1.2861,-0.79485 2.2252,-6.72316 2.7755,-17.52043 0.4436,-8.70427 -0.347,-14.81879 -2.6569,-20.54786 -0.4435,-1.1 -1.3756,-3.575 -2.0714,-5.5 -2.2238,-6.15247 -9.6772,-16.49266 -16.544,-22.95163 -10.2234,-9.61619 -21.347,-16.40624 -41.8928,-25.57218 -3.4402,-1.53477 -29.4992,-10.39533 -34,-11.56066 -1.65,-0.42722 -5.475,-1.5142 -8.5,-2.41553 -10.0463,-2.9934 -11.4611,-3.40064 -17,-4.89341 -16.4318,-4.4285 -32.8161,-9.68352 -36.2364,-11.6223 -0.955,-0.54136 -2.616,-0.98429 -3.691,-0.98429 -1.075,0 -2.2326,-0.45 -2.5726,-1 -0.3399,-0.55 -1.2953,-1 -2.123,-1 -0.8278,0 -4.0638,-1.17204 -7.191,-2.60454 -3.1273,-1.43249 -7.486,-3.31304 -9.686,-4.179 -12.0758,-4.75323 -31.2989,-15.89048 -49,-28.38899 -7.6324,-5.38918 -26.168,-23.88572 -34.5502,-34.47732 -15.88,-20.06578 -29.166,-47.72476 -36.5593,-76.10925 -2.0546,-7.88813 -4.3962,-21.93876 -4.3534,-26.12189 0.033,-3.18769 0.4498,-2.56434 3.5008,5.23033 11.4389,29.2244 27.6913,54.34271 49.6372,76.71508 13.3004,13.55885 12.9929,13.29016 26.3249,23.00082 14.6788,10.6916 35.1734,22.34592 50,28.43268 3.85,1.58054 7.45,3.16261 8,3.5157 0.55,0.35309 3.25,1.42943 6,2.39185 2.75,0.96242 5.9,2.13278 7,2.60079 1.1,0.46801 4.475,1.59019 7.5,2.49374 3.025,0.90355 6.4,2.00841 7.5,2.45525 1.1,0.44683 4.7,1.60274 8,2.56867 3.3,0.96593 6.9,2.09351 8,2.50572 1.1,0.41221 4.925,1.51645 8.5,2.45386 3.575,0.93741 7.2814,2.11211 8.2365,2.61044 0.955,0.49833 2.3175,0.90606 3.0277,0.90606 0.7102,0 4.8788,1.1311 9.2636,2.51355 4.3847,1.38245 10.4472,3.27488 13.4722,4.20539 3.025,0.93051 5.9275,2.04942 6.45,2.48645 0.5225,0.43704 1.673,0.79461 2.5566,0.79461 4.2249,0 34.7667,13.51534 47.0189,20.80682 17.6745,10.51827 34.2654,27.60959 41.4433,42.69318 1.5704,3.3 3.2324,6.78139 3.6933,7.73643 0.4609,0.95504 0.8379,2.61598 0.8379,3.69098 0,1.07501 0.4003,2.20194 0.8896,2.5043 0.9126,0.56404 1.406,2.90526 3.1755,15.06829 1.0626,7.30451 0.4001,23.22466 -1.0398,24.98319 -1.1925,1.45653 -2.4255,12.52376 -1.3905,12.48137 3.3135,-0.1357 8.3652,-5.87 8.3652,-9.49553 0,-0.7163 0.3375,-1.45236 0.75,-1.6357 0.4125,-0.18333 1.8222,-2.35833 3.1327,-4.83333 3.2214,-6.08422 9.1727,-18.03705 10.207,-20.5 1.6349,-3.8932 5.6963,-18.08193 6.8698,-24 0.6543,-3.3 1.6326,-7.575 2.1738,-9.5 1.0673,-3.79585 0.6246,-41.17187 -0.5567,-47 -3.2415,-15.99287 -7.2689,-27.69814 -14.1067,-41 -5.3046,-10.31942 -6.8831,-13 -7.6554,-13 -0.4479,0 -0.8145,-0.48002 -0.8145,-1.06672 0,-1.20681 -6.0741,-9.60063 -9.75,-13.47344 -0.6875,-0.72434 -1.25,-1.60056 -1.25,-1.94715 0,-2.13355 -30.4265,-32.41514 -41.1099,-40.91408 -1.3145,-1.04577 -5.0901,-4.21259 -8.3901,-7.03738 -3.3,-2.8248 -10.3962,-8.49417 -15.7694,-12.59861 -5.3732,-4.10444 -11.8982,-9.13787 -14.5,-11.18539 -2.6018,-2.04753 -9.2254,-6.99753 -14.7191,-11 -11.056,-8.05498 -32.1695,-24.36824 -34.5115,-26.66516 -0.825,-0.80914 -5.7458,-4.85167 -10.9352,-8.9834 -21.4862,-17.10719 -51.6835,-50.32753 -64.5622,-71.02556 -0.5487,-0.88171 -1.9687,-2.97993 -3.1557,-4.66271 -4.5473,-6.44665 -12.35,-22.56824 -18.3627,-37.9404 -3.8324,-9.79794 -7.3061,-25.82135 -9.0502,-41.74627 -2.5553,-23.33246 3.4758,-54.12998 15.814,-80.75373 3.225,-6.95901 10.3105,-19.27493 10.8047,-18.78071 0.2057,0.20572 -0.307,2.60304 -1.1394,5.32737 -6.3401,20.75018 -7.7611,49.15599 -3.5996,71.95334 3.0169,16.52679 5.2663,24.51618 9.9951,35.5 8.7691,20.36867 20.2022,39.21327 36.0861,59.47897 14.333,18.28695 45.9343,48.85747 64.6051,62.49779 3.3,2.41088 6.225,4.66992 6.5,5.0201 0.275,0.35017 9.95,7.89647 21.5,16.76955 47.9772,36.85756 54.5847,42.29034 76.2838,62.72139 8.7486,8.23738 21.6888,22.98661 29.4019,33.5122 9.5145,12.98393 22.8143,36.49311 22.8143,40.32734 0,0.69996 0.369,1.70016 0.82,2.22266 0.4509,0.5225 1.8553,4.325 3.1208,8.45 1.2655,4.125 2.6696,8.625 3.1203,10 0.4506,1.375 1.5391,6.55 2.4189,11.5 0.8797,4.95 2.0317,10.62721 2.5598,12.61602 1.2443,4.68561 1.2457,33.58492 0,39.11963 -0.5271,2.34539 -1.7006,8.08935 -2.6079,12.76435 -0.9072,4.675 -1.9988,9.625 -2.4257,11 -0.4269,1.375 -1.3275,4.525 -2.0013,7 -1.6791,6.16687 -8.0083,21.94558 -10.0281,25 -0.9093,1.375 -1.942,3.175 -2.2948,4 -0.3529,0.825 -1.7727,3.3 -3.1553,5.5 -1.3825,2.2 -3.2754,5.4625 -4.2064,7.25 -0.9309,1.7875 -2.0593,3.25 -2.5074,3.25 -0.4482,0 -0.8148,0.44658 -0.8148,0.99239 0,1.0416 -0.7426,1.98187 -10.6024,13.42517 -7.0231,8.15095 -16.4774,16.64316 -24.3976,21.91482 -3.025,2.01343 -5.95,4.02233 -6.5,4.46422 -0.55,0.44189 -2.3551,1.602 -4.0113,2.57803 -1.6563,0.97603 -3.4892,2.78712 -4.0732,4.02465 -1.0459,2.21626 -0.9706,2.24597 5.0113,1.97821 5.2286,-0.23405 7.9507,-1.2168 19.5732,-7.06628 7.425,-3.73694 17.2771,-8.9357 21.8935,-11.55282 4.6164,-2.61711 8.6127,-4.75839 8.8806,-4.75839 0.2678,0 2.6793,-1.575 5.3588,-3.5 2.6794,-1.925 5.1453,-3.5 5.4797,-3.5 1.1686,0 13.4963,-9.18171 26.3874,-19.65346 12.528,-10.17676 33.0856,-31.14471 38.9134,-39.69008 0.8089,-1.18605 1.7366,-2.38146 2.0616,-2.65646 0.325,-0.275 2.3684,-2.975 4.5408,-6 2.1725,-3.025 4.2951,-5.65 4.717,-5.83333 0.422,-0.18334 0.7672,-0.82933 0.7672,-1.43555 0,-0.60622 0.8374,-2.03122 1.8608,-3.16667 3.8881,-4.31345 27.3724,-47.92069 30.1931,-56.06445 0.381,-1.1 1.625,-4.025 2.7644,-6.5 1.1394,-2.475 3.2538,-7.65 4.6986,-11.5 1.4449,-3.85 3.0447,-8.0125 3.5551,-9.25 0.5104,-1.2375 1.3178,-3.2625 1.7942,-4.5 0.4764,-1.2375 1.3507,-3.375 1.9429,-4.75 0.5922,-1.375 2.6946,-7.225 4.6721,-13 1.9776,-5.775 4.0282,-11.28139 4.5571,-12.23643 0.5289,-0.95504 0.9616,-2.42364 0.9616,-3.26357 0,-0.83993 0.3975,-2.30853 0.8834,-3.26357 1.3118,-2.57879 2.7052,-6.14278 4.5885,-11.73643 0.9259,-2.75 2.0383,-5.9 2.472,-7 1.567,-3.97431 3.3072,-8.03481 4.1728,-9.73643 0.4858,-0.95504 0.8833,-2.15967 0.8833,-2.67697 0,-0.5173 1.575,-4.35031 3.5,-8.5178 1.925,-4.16749 3.5,-7.95767 3.5,-8.42262 0,-0.89686 5.5269,-11.78538 13.5254,-26.64618 16.6094,-30.85983 40.3082,-55.24462 66.0155,-67.92639 10.1927,-5.02824 12.6727,-5.94531 22.4523,-8.30255 4.9668,-1.19719 5.0096,-3.65266 0.098,-5.6179 -2.2034,-0.88161 -6.1628,-2.5666 -8.7987,-3.74441 -9.6382,-4.30671 -16.5366,-6.837 -26.7925,-9.82744 -3.2741,-0.95467 -13.9995,-3.19771 -25,-5.22836 -10.2588,-1.89373 -47.8415,-1.49701 -57,0.60169 -3.85,0.88223 -9.25,2.02488 -12,2.53923 -8.8813,1.66108 -24.0517,6.31987 -31.2797,9.60588 -2.9037,1.32014 -5.5357,2.40025 -5.8488,2.40025 -2.3395,0 -23.8992,11.10351 -38.5924,19.87557 -8.3219,4.96824 -26.4447,18.25078 -38.1129,27.93363 -10.793,8.9566 -31.7335,29.89796 -38.4454,38.447 -8.6969,11.07737 -6.1535,0.54549 5.4955,-22.7562 23.2211,-46.44962 67.3597,-83.59192 120.218,-101.16239 15.1202,-5.02604 17.336,-5.55267 35.5657,-8.45267 19.4091,-3.08763 47.3664,-2.17459 65.5,2.13912 1.925,0.45793 6.65,1.58005 10.5,2.4936 22.3987,5.31492 51.177,19.99659 72.5,36.98696 9.9135,7.89922 24,21.19381 24,22.65084 0,0.4645 -2.1375,0.86633 -4.75,0.89296 -13.443,0.13702 -32.0992,4.2373 -41.9203,9.21329 -21.8449,11.06805 -37.7372,27.07276 -53.7106,54.09064 -2.5405,4.2971 -4.6191,8.04376 -4.6191,8.32591 0,0.28215 -0.8172,1.70747 -1.816,3.16737 -1.4767,2.15851 -5.875,12.15455 -12.1681,27.65437 -0.4466,1.1 -1.4835,3.575 -2.3042,5.5 -0.8208,1.925 -2.4881,6.425 -3.7052,10 -1.2172,3.575 -2.579,7.4 -3.0263,8.5 -0.4473,1.1 -1.0428,2.9 -1.3233,4 -0.2806,1.1 -3.5246,10.775 -7.209,21.5 -3.6843,10.725 -7.056,20.85 -7.4926,22.5 -0.7882,2.97862 -4.3385,13.167 -5.9241,17 -0.455,1.1 -1.5127,3.575 -2.3504,5.5 -0.8377,1.925 -2.6671,6.54715 -4.0652,10.27144 -4.4513,11.85683 -17.2514,38.45655 -24.8102,51.55743 -2.643,4.58087 -4.8054,8.51863 -4.8054,8.75056 0,0.37402 -13.196,19.98558 -17.7493,26.37863 -4.0386,5.6704 -16.4418,20.07006 -23.337,27.09348 -32.963,33.57592 -74.0446,57.15284 -123.9137,71.11466 -24.8682,6.96231 -68.5031,11.15531 -91,8.74442 z m 67.5,-187.61175 c -4.95,-5.8102 -11.7,-12.62086 -15,-15.13479 -3.3,-2.51393 -6.225,-4.8378 -6.5,-5.16415 -1.8101,-2.14821 -19.5371,-13.93678 -30,-19.95023 -11.6781,-6.71193 -40.8591,-21.42466 -61.5,-31.00759 -42.876,-19.90609 -70.8817,-36.85269 -94.8964,-57.42312 -8.7556,-7.49984 -20.9404,-19.6418 -25.6087,-25.51867 -1.9222,-2.41982 -4.6546,-5.79482 -6.0721,-7.5 -3.6066,-4.33861 -8.4692,-11.61676 -12.6282,-18.9013 -1.9465,-3.40946 -4.3118,-7.54902 -5.2561,-9.19902 -2.6117,-4.5636 -12.063,-28.21082 -13.7757,-34.46701 -4.5353,-16.56629 -6.4269,-30.44252 -6.5479,-48.03299 -0.1079,-15.68337 1.5957,-35.6122 3.1859,-37.26955 0.4061,-0.42325 1.4713,3.40175 2.3671,8.5 0.8958,5.09825 2.0819,11.06955 2.6357,13.26955 0.5538,2.2 1.286,5.35 1.627,7 0.3411,1.65 0.9738,3.9 1.4062,5 0.4324,1.1 1.3245,3.8 1.9825,6 1.0135,3.38848 3.7117,10.62948 7.08,19 2.9147,7.24325 9.7958,21.00762 13.2479,26.5 13.566,21.58395 17.2847,26.39861 34.8812,45.16142 4.0062,4.27178 12.009,11.50886 17.969,16.24975 1.3215,1.05114 4.8776,4.00933 7.9026,6.57375 5.7544,4.87823 18.2909,13.86021 28.5,20.41934 3.3,2.12017 7.575,4.89641 9.5,6.16941 1.925,1.27301 4.625,2.79781 6,3.38846 1.375,0.59065 4.5926,2.37626 7.1502,3.96804 2.5577,1.59177 6.6077,3.99065 9,5.33084 24.0984,13.49964 30.8515,17.35278 34.3161,19.58004 2.2186,1.42619 5.4765,3.38567 7.2398,4.35441 8.2466,4.53047 30.2485,19.70676 37.7192,26.01765 17.9631,15.1743 32.1877,31.40356 40.5696,46.28689 8.9219,15.84217 15.6109,31.62339 13.3225,31.43144 -0.4495,-0.0377 -4.8674,-4.82237 -9.8174,-10.63257 z" />
</svg>
